<svg xmlns="http://www.w3.org/2000/svg" width="244.044" height="57" viewBox="0 0 244.044 57"><g id="Groupe_23" data-name="Groupe 23" transform="translate(-42.053 -636.631)"><g id="Groupe_1" data-name="Groupe 1" transform="translate(42.053 636.631)"><path id="Trac&#xE9;_1" data-name="Trac&#xE9; 1" d="M88.655,679.2a22.959,22.959,0,1,1,.6-27.336h6.5A28.512,28.512,0,1,0,95.3,679.2Z" transform="translate(-42.053 -636.631)" fill="#b4002d"></path></g><g id="Groupe_2" data-name="Groupe 2" transform="translate(88.93 654.719)"><path id="Trac&#xE9;_2" data-name="Trac&#xE9; 2" d="M222.32,702.559v7.267c0,4.679-2.239,6.773-7.354,6.773H194.533V695.468h18.543C219.353,695.468,222.32,697.5,222.32,702.559Zm-21.336-1.888v10.782h10.929c2.733,0,3.954-1.074,3.954-3.459v-3.719c0-2.5-1.54-3.6-4.766-3.6Z" transform="translate(-194.533 -695.468)" fill="#161615"></path></g><g id="Groupe_3" data-name="Groupe 3" transform="translate(118.093 654.719)"><path id="Trac&#xE9;_3" data-name="Trac&#xE9; 3" d="M312.793,695.468h6.859L308.374,716.6h-7.818l-11.163-21.131h7.037l7.935,15.172Z" transform="translate(-289.393 -695.468)" fill="#161615"></path></g><g id="Groupe_4" data-name="Groupe 4" transform="translate(179.419 654.719)"><path id="Trac&#xE9;_4" data-name="Trac&#xE9; 4" d="M508,716.6l-12.673-15.377V716.6h-6.451V695.468h9.563l12.587,15.493V695.468h6.421V716.6Z" transform="translate(-488.873 -695.468)" fill="#161615"></path></g><g id="Groupe_5" data-name="Groupe 5" transform="translate(212.03 654.458)"><path id="Trac&#xE9;_5" data-name="Trac&#xE9; 5" d="M615.3,702.291c0-1.685-1.075-2.384-3.4-2.384h-5.17c-4.188,0-5.206.552-5.206,4.156V707c0,3.312,1.426,3.982,5.206,3.982h3.746c3.576,0,5-.378,5-2.907v-.233h6.539c.031.554.057,1.046.057,1.538,0,2.618-.607,4.363-2.121,5.466-1.6,1.19-4.128,1.423-7.817,1.423h-7.21c-3.341,0-5.7-.144-7.527-1.567-1.775-1.4-2.442-3.313-2.442-6.191v-5.757c0-6.335,2.761-8.137,9.969-8.137h7.21c3.689,0,6.191.174,7.731,1.365,1.365,1.046,1.946,2.791,1.946,5.319,0,.377,0,.785-.029,1.19H615.3Z" transform="translate(-594.948 -694.618)" fill="#161615"></path></g><g id="Groupe_6" data-name="Groupe 6" transform="translate(242.955 654.719)"><path id="Trac&#xE9;_6" data-name="Trac&#xE9; 6" d="M695.54,716.6V695.468h6.453V716.6Z" transform="translate(-695.54 -695.468)" fill="#161615"></path></g><g id="Groupe_7" data-name="Groupe 7" transform="translate(144.946 654.72)"><path id="Trac&#xE9;_7" data-name="Trac&#xE9; 7" d="M408.113,716.7H402v.021H388.33v-1.387h12.008l-7.916-14.554-8.645,15.91H376.74l11.535-21.222h7.037l-.006.012h1.273Z" transform="translate(-376.74 -695.47)" fill="#161615"></path></g><g id="Groupe_8" data-name="Groupe 8" transform="translate(252.904 654.72)"><path id="Trac&#xE9;_8" data-name="Trac&#xE9; 8" d="M759.276,716.7h-4.9v.021H740.7v-1.387h10.8l-7.916-14.554-8.645,15.91H727.9l11.538-21.222h7.034l-.009.012h1.279Z" transform="translate(-727.9 -695.47)" fill="#161615"></path></g><g id="Groupe_10" data-name="Groupe 10" transform="translate(53 651.031)"><g id="Groupe_9" data-name="Groupe 9" transform="translate(0)"><path id="Trac&#xE9;_9" data-name="Trac&#xE9; 9" d="M105.313,687.522l-.255,24.155-5.34-2.979-.009.018-11.941-6.653.338-.606.338-.605L98.928,706.7l.175-16.568-15.295,9.687-6.149-3.422,20.4-12.924,6.149,3.425-.012.006Z" transform="translate(-77.66 -683.47)" fill="#b4002d"></path></g></g><g id="Groupe_11" data-name="Groupe 11" transform="translate(189.6 676.227)"><path id="Trac&#xE9;_10" data-name="Trac&#xE9; 10" d="M521.989,765.429" transform="translate(-521.989 -765.429)" fill="#161615"></path></g><g id="Groupe_13" data-name="Groupe 13" transform="translate(279.9 654.716)"><g id="Groupe_12" data-name="Groupe 12"><path id="Trac&#xE9;_11" data-name="Trac&#xE9; 11" d="M818.812,695.457a3.171,3.171,0,0,1,1.526.4A2.844,2.844,0,0,1,821.5,697a3.158,3.158,0,0,1,.413,1.551,3.1,3.1,0,0,1-.408,1.537,2.879,2.879,0,0,1-1.146,1.146,3.121,3.121,0,0,1-3.083,0,2.887,2.887,0,0,1-1.148-1.146A3.083,3.083,0,0,1,816.13,697a2.848,2.848,0,0,1,1.161-1.143A3.169,3.169,0,0,1,818.812,695.457Zm0,.511a2.648,2.648,0,0,0-1.27.335,2.394,2.394,0,0,0-.969.955,2.573,2.573,0,0,0-.007,2.575,2.439,2.439,0,0,0,.962.957,2.587,2.587,0,0,0,2.572,0,2.4,2.4,0,0,0,.958-.957,2.577,2.577,0,0,0-.006-2.575,2.384,2.384,0,0,0-.968-.955A2.661,2.661,0,0,0,818.812,695.968Zm-1.356,4.3v-3.327h1.151a2.822,2.822,0,0,1,.853.092.816.816,0,0,1,.421.32.843.843,0,0,1,.158.487.87.87,0,0,1-.266.632,1.047,1.047,0,0,1-.7.3.869.869,0,0,1,.286.177,3.81,3.81,0,0,1,.493.662l.408.654H819.6l-.3-.527a2.986,2.986,0,0,0-.556-.774.663.663,0,0,0-.432-.114h-.32v1.415Zm.536-1.873h.662a1.067,1.067,0,0,0,.647-.141.452.452,0,0,0,.173-.37.44.44,0,0,0-.085-.266.5.5,0,0,0-.229-.176,1.736,1.736,0,0,0-.547-.057h-.621Z" transform="translate(-815.713 -695.457)" fill="#161615"></path></g></g><g id="Groupe_22" data-name="Groupe 22" transform="translate(212.021 679.073)"><g id="Groupe_14" data-name="Groupe 14" transform="translate(0)"><path id="Trac&#xE9;_12" data-name="Trac&#xE9; 12" d="M597.481,780.56v-5.182h-2.562v-.695h6.14v.695H598.5v5.182Z" transform="translate(-594.919 -774.683)" fill="#161615"></path></g><g id="Groupe_15" data-name="Groupe 15" transform="translate(10.447)"><path id="Trac&#xE9;_13" data-name="Trac&#xE9; 13" d="M634.811,780.56h-1.317l-2.419-2.337h-1.157v2.337H628.9v-5.877h1.967a8.976,8.976,0,0,1,1.1.056,2.552,2.552,0,0,1,.843.256,1.72,1.72,0,0,1,.633.509,1.255,1.255,0,0,1,.233.773,1.487,1.487,0,0,1-.426,1.082A2.569,2.569,0,0,1,632.1,778Zm-2.193-4.223a.882.882,0,0,0-.118-.456.871.871,0,0,0-.365-.326,1.656,1.656,0,0,0-.5-.156,4.6,4.6,0,0,0-.713-.046h-1v2.219h.891a4.64,4.64,0,0,0,.784-.059,1.336,1.336,0,0,0,.595-.245,1.035,1.035,0,0,0,.326-.394A1.278,1.278,0,0,0,632.618,776.337Z" transform="translate(-628.902 -774.683)" fill="#161615"></path></g><g id="Groupe_16" data-name="Groupe 16" transform="translate(20.754)"><path id="Trac&#xE9;_14" data-name="Trac&#xE9; 14" d="M662.426,780.56,665,774.683h1.251l2.573,5.877H667.75l-.691-1.642h-2.916l-.692,1.642Zm4.351-2.309L665.6,775.48l-1.173,2.771Z" transform="translate(-662.426 -774.683)" fill="#161615"></path></g><g id="Groupe_17" data-name="Groupe 17" transform="translate(31.62)"><path id="Trac&#xE9;_15" data-name="Trac&#xE9; 15" d="M700.733,780.56h-2.962v-.6h.974v-4.677h-.974v-.6h2.962v.6h-.974v4.677h.974Z" transform="translate(-697.771 -774.683)" fill="#161615"></path></g><g id="Groupe_18" data-name="Groupe 18" transform="translate(38.951)"><path id="Trac&#xE9;_16" data-name="Trac&#xE9; 16" d="M727.076,780.56h-1.138l-3.372-5.068v5.068h-.948v-5.877h1.44l3.07,4.654v-4.654h.948Z" transform="translate(-721.618 -774.683)" fill="#161615"></path></g><g id="Groupe_19" data-name="Groupe 19" transform="translate(48.692)"><path id="Trac&#xE9;_17" data-name="Trac&#xE9; 17" d="M756.267,780.56H753.3v-.6h.974v-4.677H753.3v-.6h2.963v.6h-.974v4.677h.974Z" transform="translate(-753.304 -774.683)" fill="#161615"></path></g><g id="Groupe_20" data-name="Groupe 20" transform="translate(56.11)"><path id="Trac&#xE9;_18" data-name="Trac&#xE9; 18" d="M782.888,780.56h-1.137l-3.373-5.068v5.068h-.948v-5.877h1.44l3.07,4.654v-4.654h.948Z" transform="translate(-777.43 -774.683)" fill="#161615"></path></g><g id="Groupe_21" data-name="Groupe 21" transform="translate(65.999)"><path id="Trac&#xE9;_19" data-name="Trac&#xE9; 19" d="M813.227,780.781a5.457,5.457,0,0,1-1.481-.189,3.22,3.22,0,0,1-1.153-.576,2.582,2.582,0,0,1-.738-.967,3.227,3.227,0,0,1-.256-1.327,3.01,3.01,0,0,1,.259-1.272,2.7,2.7,0,0,1,.741-.962,3.3,3.3,0,0,1,1.148-.6,5.073,5.073,0,0,1,1.492-.209,5.981,5.981,0,0,1,.738.044,6.624,6.624,0,0,1,.677.118q.255.059.571.163c.21.07.381.13.51.18v.944h-.087q-.19-.131-.392-.247a3.786,3.786,0,0,0-.571-.25,4.2,4.2,0,0,0-.707-.2,4.445,4.445,0,0,0-.861-.079,2.489,2.489,0,0,0-1.781.639,2.227,2.227,0,0,0-.679,1.7,2.727,2.727,0,0,0,.18,1.034,2.009,2.009,0,0,0,.517.75,2.216,2.216,0,0,0,.792.464,3.2,3.2,0,0,0,1.043.16,7.727,7.727,0,0,0,.856-.048,3.626,3.626,0,0,0,.718-.142V778.4H813v-.687h2.768v2.566c-.13.045-.3.1-.52.17s-.42.122-.608.162q-.374.087-.676.13A5.23,5.23,0,0,1,813.227,780.781Z" transform="translate(-809.599 -774.683)" fill="#161615"></path></g></g></g></svg>